<svg height="457.14286pt" viewBox="0 0 457.14286 457.14286" width="457.14286pt" xmlns="http://www.w3.org/2000/svg"><path d="m9.144531 290.285156v41.742188c0 8.925781 7.234375 16.164062 16.164063 16.164062h406.527344c8.925781 0 16.164062-7.238281 16.164062-16.164062v-41.742188zm0 0" fill="#4b6981"/><path d="m431.835938 357.332031h-406.527344c-13.957032 0-25.308594-11.351562-25.308594-25.304687v-41.742188c0-5.054687 4.09375-9.140625 9.144531-9.140625h438.855469c5.050781 0 9.144531 4.085938 9.144531 9.140625v41.742188c0 13.953125-11.355469 25.304687-25.308593 25.304687zm-413.550782-57.902343v32.597656c0 3.867187 3.152344 7.015625 7.023438 7.015625h406.527344c3.871093 0 7.019531-3.148438 7.019531-7.015625v-32.597656zm0 0" fill="#2a3d4f"/><path d="m431.835938 9.144531h-406.527344c-8.929688 0-16.164063 7.234375-16.164063 16.164063v264.976562h438.855469v-264.976562c0-8.929688-7.238281-16.164063-16.164062-16.164063zm0 0" fill="#3c96d1"/><path d="m448 299.429688h-438.855469c-5.050781 0-9.144531-4.089844-9.144531-9.144532v-264.980468c0-13.957032 11.351562-25.304688 25.308594-25.304688h406.527344c13.953124 0 25.308593 11.347656 25.308593 25.304688v264.980468c0 5.054688-4.09375 9.144532-9.144531 9.144532zm-429.714844-18.285157h420.570313v-255.839843c0-3.867188-3.148438-7.019532-7.019531-7.019532h-406.527344c-3.871094 0-7.023438 3.152344-7.023438 7.019532zm0 0" fill="#2a3d4f"/><path d="m289.691406 448h-122.332031c84.570313-33.242188-6.214844-66.488281-29.898437-99.839844h182.21875c-23.769532 33.351563-114.558594 66.597656-29.988282 99.839844zm0 0" fill="#4b6981"/><path d="m289.691406 457.144531h-122.328125c-4.394531 0-8.167969-3.125-8.984375-7.4375-.816406-4.324219 1.550782-8.609375 5.640625-10.214843 25.253907-9.929688 29.007813-17.972657 29.449219-20.972657 1.386719-9.414062-16.941406-23.859375-31.667969-35.464843-12.027343-9.484376-24.464843-19.285157-31.792969-29.597657-1.976562-2.789062-2.234374-6.449219-.667968-9.492187 1.570312-3.035156 4.703125-4.945313 8.125-4.945313h182.214844c3.421874 0 6.558593 1.910157 8.128906 4.953125 1.566406 3.046875 1.304687 6.707032-.683594 9.492188-7.34375 10.304687-19.777344 20.097656-31.804688 29.5625-14.757812 11.617187-33.121093 26.070312-31.730468 35.492187.4375 3 4.191406 11.042969 29.445312 20.972657 4.089844 1.605468 6.457032 5.890624 5.640625 10.214843-.820312 4.3125-4.589843 7.4375-8.984375 7.4375zm-88.078125-18.289062h53.828125c-5.746094-5.417969-9-11.257813-9.945312-17.667969-2.929688-19.902344 18.136718-36.492188 38.511718-52.527344 4.777344-3.757812 9.621094-7.578125 14.054688-11.355468h-139.019531c4.4375 3.792968 9.292969 7.613281 14.074219 11.382812 20.34375 16.035156 41.375 32.605469 38.441406 52.5-.945313 6.410156-4.203125 12.25-9.945313 17.667969zm0 0" fill="#2a3d4f"/><path d="m259.621094 328.382812h-62.097656c-5.050782 0-9.144532-4.089843-9.144532-9.140624 0-5.054688 4.09375-9.144532 9.144532-9.144532h62.097656c5.046875 0 9.140625 4.089844 9.140625 9.144532 0 5.050781-4.09375 9.140624-9.140625 9.140624zm0 0" fill="#2a3d4f"/><path d="m94.722656 54.855469-39.867187 39.867187" fill="#fcdd40"/><path d="m54.855469 103.867188c-2.335938 0-4.675781-.894532-6.460938-2.679688-3.574219-3.570312-3.574219-9.355469 0-12.929688l39.863281-39.863281c3.574219-3.574219 9.359376-3.574219 12.929688 0 3.570312 3.570313 3.570312 9.355469 0 12.925781l-39.867188 39.867188c-1.785156 1.785156-4.125 2.679688-6.464843 2.679688zm0 0" fill="#2a3d4f"/><path d="m141.527344 65.96875-75.558594 75.558594" fill="#fcdd40"/><path d="m65.96875 150.667969c-2.339844 0-4.679688-.890625-6.464844-2.675781-3.570312-3.574219-3.570312-9.359376 0-12.929688l75.558594-75.554688c3.570312-3.570312 9.355469-3.570312 12.929688 0 3.570312 3.574219 3.570312 9.359376 0 12.929688l-75.558594 75.554688c-1.785156 1.785156-4.125 2.675781-6.464844 2.675781zm0 0" fill="#2a3d4f"/></svg>